# xmcd CD database file
#
# Track frame offsets:
#	150
#	20000
#	35575
#	52623
#	73659
#	97170
#	121542
#	137307
#	156292
#	175055
#
# Disc length: 2535 seconds
#
# Revision: 3
# Processed by: cddbd v1.5.2PL0 Copyright (c) Steve Scherf et al.
# Submitted via: CDex 1.79
#
DISCID=7909e50a
DTITLE=K.D.Lang and the Siss boom bang - Sing it loud
DYEAR=2011
DGENRE=Country
TTITLE0=I confess
TTITLE1=A sleep with no dreaming
TTITLE2=The water's edge
TTITLE3=Perfect word
TTITLE4=Sugar buzz
TTITLE5=Sing it loud
TTITLE6=Inglewood
TTITLE7=Habit of mind
TTITLE8=Heaven
TTITLE9=Sorrow nevermore
EXTD=YEAR: 2011
EXTT0=
EXTT1=
EXTT2=
EXTT3=
EXTT4=
EXTT5=
EXTT6=
EXTT7=
EXTT8=
EXTT9=
PLAYORDER=
